<svg width="328" height="157" viewBox="0 0 328 157" fill="none" xmlns="http://www.w3.org/2000/svg">
<path d="M328 80V157C290.31 156.27 260 125.742 260 88.177V80H328Z" fill="#FF1563"/>
<path d="M155.99 0C153.337 33.457 144.765 59.7833 132.91 80.4979C132.528 81.1655 132.146 81.8331 131.755 82.4814C131.573 82.791 131.382 83.1102 131.192 83.4199C87.7888 155.404 4.2286 156.971 0 157V83.4295H0.0286361C7.62675 83.4295 14.9862 82.4136 21.9734 80.4979C39.7565 75.641 55.1054 65.0176 65.8917 50.7853C76.2198 37.1529 82.3384 20.2019 82.3384 1.83829C82.3384 1.22875 82.3384 0.60954 82.3193 0H156L155.99 0Z" fill="#FF1563"/>
<path d="M285.981 0.00967523C283.327 33.4666 274.756 59.7929 262.9 80.5076C262.518 81.1752 262.137 81.8428 261.745 82.491C261.564 82.8006 261.373 83.1199 261.182 83.4295C217.798 155.404 134.238 156.971 130 157V83.4295H130.029C137.627 83.4295 144.986 82.4136 151.973 80.4979C169.756 75.641 185.105 65.0176 195.892 50.7853C206.22 37.1529 212.338 20.2019 212.338 1.83829C212.338 1.22875 212.338 0.60954 212.319 0H286L285.981 0.00967523Z" fill="#FF1563"/>
</svg>
